<svg width="33" height="40" viewBox="0 0 33 40" fill="none" xmlns="http://www.w3.org/2000/svg">
<path d="M23.1035 39.8822C22.4724 40.1755 21.7245 39.9006 21.4312 39.271L21.3421 39.079C21.1686 38.7059 20.8614 38.4218 20.4745 38.2805L17.463 37.1795C17.076 37.0382 16.6583 37.0566 16.2852 37.2285L16.0916 37.3176C15.4605 37.6109 14.7126 37.3361 14.4193 36.7049C14.126 36.0737 14.4008 35.3244 15.0305 35.0326C15.6617 34.7392 16.4095 35.0141 16.7028 35.6453L16.7919 35.8388C16.9655 36.2119 17.2741 36.4945 17.6596 36.6358L20.671 37.7368C21.0581 37.8781 21.4757 37.8597 21.8489 37.6877L22.0423 37.5986C22.6736 37.3053 23.4214 37.5802 23.7147 38.2098C24.008 38.8411 23.7332 39.5904 23.1035 39.8822Z" fill="#F7F2F8"/>
<path d="M20.7988 4.96568C20.1676 5.25901 19.4198 4.98412 19.1265 4.35448L19.0374 4.16099C18.8638 3.78781 18.5567 3.50525 18.1697 3.36397L15.1568 2.26289C14.7712 2.1216 14.3521 2.13849 13.9789 2.31202L13.787 2.4011C13.1557 2.69441 12.4079 2.41952 12.1146 1.78989C11.8213 1.15872 12.0961 0.410844 12.7258 0.117528C13.3569 -0.175789 14.1048 0.0990994 14.3981 0.728731L14.4872 0.922227C14.6607 1.2954 14.9679 1.57797 15.3548 1.71924L18.3663 2.82034C18.7533 2.96162 19.171 2.94473 19.5441 2.77119L19.7377 2.68212C20.3688 2.38881 21.1167 2.66369 21.41 3.29332C21.7033 3.92449 21.4285 4.67237 20.7988 4.96568Z" fill="#F7F2F8"/>
<path d="M25.4923 35.0756C24.8611 35.3688 24.1102 35.094 23.8168 34.4629L23.7262 34.2693C23.5528 33.8961 23.2441 33.6136 22.8587 33.4708L16.2629 31.0597C15.8759 30.9184 15.4582 30.9354 15.085 31.1088L14.8915 31.1979C14.2604 31.4912 13.5094 31.2164 13.2161 30.5852C12.9228 29.9525 13.1977 29.2031 13.8289 28.9097C14.46 28.6164 15.211 28.8898 15.5043 29.5225L15.5949 29.7191C15.7685 30.0923 16.0756 30.3764 16.4626 30.5176L23.0537 32.9287C23.4406 33.07 23.8584 33.053 24.2315 32.8795L24.4265 32.7889C25.0578 32.4956 25.8087 32.7705 26.102 33.4017C26.3953 34.0343 26.1205 34.7838 25.4892 35.0771L25.4923 35.0756Z" fill="#F7F2F8"/>
<path d="M28.6619 30.5606C28.0307 30.8539 27.2798 30.5791 26.9865 29.9478L26.8989 29.7589C26.7253 29.3858 26.4167 29.1032 26.0312 28.9619L21.9033 27.4523C21.5163 27.3111 21.0987 27.3279 20.7254 27.5015L20.5304 27.5921C19.8993 27.8854 19.1483 27.6105 18.855 26.9794L18.7644 26.7828C18.5909 26.4097 18.2838 26.127 17.8967 25.9842L13.7627 24.4716C13.3757 24.3303 12.958 24.3487 12.5848 24.5208L12.3944 24.6098C11.7633 24.9031 11.0123 24.6282 10.7191 23.9971C10.4258 23.3643 10.7006 22.615 11.3317 22.3216C11.963 22.0283 12.7138 22.3032 13.0072 22.9344L13.0994 23.1325C13.2729 23.5056 13.58 23.7882 13.967 23.9294L18.0979 25.4406C18.4834 25.5819 18.9026 25.5634 19.2758 25.3915L19.4693 25.3024C20.1005 25.0091 20.8514 25.2824 21.1447 25.9151L21.2338 26.1086C21.4074 26.4818 21.7145 26.7643 22.1015 26.9056L26.2232 28.4137C26.6102 28.5549 27.0279 28.5366 27.3995 28.3645L27.5991 28.2724C28.2303 27.9791 28.9812 28.254 29.2745 28.8851C29.5679 29.5179 29.293 30.2672 28.6619 30.5606Z" fill="#F7F2F8"/>
<path d="M26.7501 24.2211C26.1189 24.5145 25.368 24.2395 25.0746 23.6084L24.984 23.4149C24.8106 23.0418 24.5019 22.7592 24.1165 22.6179L21.409 21.6274C21.022 21.4861 20.6043 21.5029 20.2312 21.6765L20.0346 21.7686C19.4034 22.062 18.6525 21.7886 18.3592 21.1559L18.2671 20.9594C18.0935 20.5862 17.7864 20.3037 17.3994 20.1624L14.7073 19.1765C14.3203 19.0351 13.9027 19.0521 13.5294 19.2255L13.336 19.3161C12.7048 19.6095 11.9538 19.3346 11.6605 18.7035L11.5699 18.5099C11.3965 18.1368 11.0893 17.8542 10.7024 17.7129L7.96728 16.7117C7.58025 16.5704 7.16259 16.5873 6.78937 16.7608L6.6005 16.8483C5.96937 17.1416 5.2184 16.8668 4.92511 16.2355C4.63182 15.6029 4.90666 14.8534 5.53779 14.5601C6.16903 14.2669 6.91838 14.5402 7.21329 15.1713L7.30692 15.3725C7.48047 15.7457 7.78757 16.0282 8.1746 16.1695L10.9004 17.1677C11.2874 17.309 11.7051 17.2921 12.0783 17.1187L12.2748 17.0281C12.906 16.7347 13.6569 17.0096 13.9502 17.6407L14.0408 17.8373C14.2144 18.2105 14.5215 18.493 14.9085 18.6343L17.6036 19.6202C17.9906 19.7615 18.4084 19.7431 18.7815 19.5711L18.9735 19.482C19.6046 19.1888 20.3556 19.4636 20.6489 20.0947L20.738 20.2867C20.9114 20.6598 21.2186 20.9425 21.6055 21.0838L24.316 22.0758C24.703 22.2171 25.1207 22.1987 25.4939 22.0266L25.6889 21.936C26.3201 21.6427 27.071 21.9176 27.3643 22.5488C27.6577 23.1815 27.3828 23.9309 26.7516 24.2242L26.7501 24.2211Z" fill="#F7F2F8"/>
<path d="M24.833 12.1944C24.2018 12.4877 23.4509 12.2143 23.1575 11.5816L23.0669 11.3882C22.8935 11.0149 22.5863 10.7323 22.1994 10.5911L19.4904 9.60057C19.105 9.45929 18.6857 9.47618 18.3125 9.64972L18.116 9.74031C17.4833 10.0336 16.7339 9.76028 16.4406 9.12758L16.35 8.93102C16.1779 8.56091 15.8662 8.27373 15.4838 8.13399L12.7902 7.14808C12.4032 7.0068 11.9856 7.02369 11.6123 7.19723C10.8738 7.53968 9.99681 7.22025 9.65444 6.48159C9.48088 6.10842 9.17217 5.82586 8.78676 5.68458L6.05168 4.6833C5.66628 4.54202 5.24851 4.55891 4.8754 4.73245L4.68652 4.81998C4.05377 5.1133 3.30442 4.83841 3.01102 4.20724C2.71773 3.57454 2.99269 2.82512 3.62382 2.53181C4.25646 2.23849 5.00591 2.51184 5.29921 3.14455L5.39294 3.34572C5.56488 3.71583 5.87662 4.00299 6.259 4.14275L8.98329 5.1394C9.37032 5.28069 9.78798 5.26379 10.1612 5.09027H10.1642C10.9029 4.74627 11.7797 5.06723 12.1222 5.80589V5.80897C12.2973 6.18214 12.6044 6.4647 12.9914 6.60598L15.6866 7.59189C16.0735 7.73318 16.4913 7.71475 16.8644 7.54275L17.0564 7.45368C17.689 7.16037 18.4385 7.43526 18.7318 8.06642L18.8209 8.25838C18.9944 8.63155 19.3015 8.91566 19.6885 9.05694L22.3989 10.049C22.7859 10.1903 23.2036 10.1718 23.5768 9.99984L23.7718 9.90925C24.403 9.61593 25.1539 9.89081 25.4472 10.522C25.7406 11.1547 25.4657 11.9041 24.8345 12.1974L24.833 12.1944Z" fill="#F7F2F8"/>
<path d="M28.9176 19.3812C28.2848 19.6745 27.5355 19.3996 27.2421 18.7685L27.1515 18.575C26.978 18.2017 26.6708 17.9176 26.2839 17.7764L22.7717 16.4926C22.3863 16.3513 21.9686 16.3682 21.5955 16.5417L21.405 16.6308C20.7738 16.924 20.0229 16.6492 19.7296 16.0181L19.6421 15.8276C19.4685 15.4545 19.1614 15.1718 18.7744 15.0305L15.7983 13.9417C15.4129 13.8005 14.9936 13.819 14.622 13.9909L14.4269 14.0815C13.7942 14.3748 13.0448 14.1 12.7514 13.4688L12.6625 13.2753C12.4889 12.9021 12.1817 12.618 11.7948 12.4768L9.59418 11.6721C9.20716 11.5308 8.78939 11.5476 8.41628 11.7212L8.2274 11.8087C7.59465 12.102 6.8453 11.8271 6.55201 11.1959L6.46443 11.0071C6.29087 10.6339 5.98377 10.3513 5.59674 10.2101L3.15809 9.31782C2.77117 9.17653 2.35491 9.19343 1.9818 9.36696L1.79292 9.4545C1.1618 9.74781 0.410826 9.47292 0.117536 8.84176C-0.175862 8.20906 0.0990907 7.45964 0.73022 7.16632C1.36135 6.87301 2.11232 7.1479 2.40561 7.77907L2.49934 7.98024C2.67279 8.35341 2.98 8.63598 3.36703 8.77726L5.78724 9.66335C6.17416 9.80464 6.59192 9.78773 6.96504 9.61421L7.1647 9.52207C7.79744 9.22875 8.5468 9.50363 8.84009 10.1348L8.93231 10.3344C9.10576 10.7076 9.41297 10.9901 9.79989 11.1314L11.9913 11.9331C12.3783 12.0744 12.796 12.0575 13.1692 11.8839L13.3642 11.7933C13.9969 11.5 14.7463 11.7749 15.0396 12.4061L15.1302 12.5996C15.3038 12.9727 15.6109 13.2569 15.9979 13.3982L18.9663 14.4839C19.3533 14.6252 19.7711 14.6067 20.1442 14.4347L20.3439 14.3426C20.975 14.0493 21.726 14.3241 22.0193 14.9554L22.1114 15.1549C22.2849 15.5281 22.592 15.8107 22.9791 15.9519L26.4851 17.2343C26.8705 17.3756 27.2898 17.3571 27.6614 17.1851L27.8564 17.0946C28.4875 16.8012 29.2385 17.0761 29.5318 17.7073C29.8252 18.34 29.5517 19.0894 28.9191 19.3827L28.9176 19.3812Z" fill="#F7F2F8"/>
<path d="M30.9908 23.8253L30.9185 23.859C30.3084 24.142 30.0432 24.866 30.3263 25.4761L30.3599 25.5486C30.643 26.1587 31.367 26.4238 31.9771 26.1407L32.0496 26.1071C32.6597 25.8241 32.9248 25.1 32.6416 24.4899L32.6081 24.4175C32.325 23.8074 31.6009 23.5423 30.9908 23.8253Z" fill="#F7F2F8"/>
</svg>
