<svg width="16" height="17" viewBox="0 0 16 17" fill="none" xmlns="http://www.w3.org/2000/svg">
<path d="M8 5.37337C6.52724 5.37337 5.33333 6.56728 5.33333 8.04004C5.33333 9.5128 6.52724 10.7067 8 10.7067C9.47276 10.7067 10.6667 9.5128 10.6667 8.04004C10.6667 6.56728 9.47276 5.37337 8 5.37337Z" fill="#303030"/>
<path fill-rule="evenodd" clip-rule="evenodd" d="M4.8 0.0400391C2.14903 0.0400391 0 2.18907 0 4.84004V11.24C0 13.891 2.14903 16.04 4.8 16.04H11.2C13.851 16.04 16 13.891 16 11.24V4.84004C16 2.18907 13.851 0.0400391 11.2 0.0400391H4.8ZM4.26667 8.04004C4.26667 5.97818 5.93814 4.30671 8 4.30671C10.0619 4.30671 11.7333 5.97818 11.7333 8.04004C11.7333 10.1019 10.0619 11.7734 8 11.7734C5.93814 11.7734 4.26667 10.1019 4.26667 8.04004ZM11.7333 4.30671H12.8V3.24004H11.7333V4.30671Z" fill="#303030"/>
</svg>
