<svg width="16" height="17" viewBox="0 0 16 17" fill="none" xmlns="http://www.w3.org/2000/svg">
<path d="M2.66667 0.0400391C1.19391 0.0400391 0 1.23395 0 2.70671V4.84004C0 11.0256 5.01441 16.04 11.2 16.04H13.3333C14.8061 16.04 16 14.8461 16 13.3734V11.8993C16 11.2932 15.6576 10.7392 15.1156 10.4682L12.5386 9.1797C11.6677 8.74425 10.613 9.1811 10.3051 10.1048L9.9875 11.0577C9.86682 11.4197 9.49544 11.6352 9.12123 11.5604C6.77897 11.0919 4.94811 9.26108 4.47966 6.91882C4.40481 6.54461 4.62033 6.17322 4.98238 6.05254L6.16492 5.65836C6.95807 5.39398 7.41395 4.56351 7.21118 3.75241L6.58607 1.25198C6.40801 0.539715 5.76803 0.0400391 5.03384 0.0400391H2.66667Z" fill="#303030"/>
</svg>
