<svg width="24" height="24" viewBox="0 0 24 24" fill="none" xmlns="http://www.w3.org/2000/svg">
<path d="M23.9637 2.34721C23.9425 2.02629 23.7311 1.74932 23.4271 1.64413C23.1232 1.53894 22.7858 1.62598 22.5707 1.86508C22.0178 2.47973 21.3189 2.89623 20.6096 3.08614C19.6231 2.16514 18.2976 1.60013 16.841 1.60013C13.7149 1.60013 11.1828 4.13794 11.1828 7.26588V7.96958C6.39678 7.59972 3.8374 3.96407 3.1468 2.11961C3.03517 1.82147 2.75739 1.6179 2.43948 1.60123C2.12157 1.58456 1.82403 1.75797 1.68183 2.0428C0.00706901 5.3975 -0.250972 8.65124 0.966238 11.4219C2.03251 13.849 4.17689 15.7824 7.21613 17.0632C5.83486 18.0421 3.51006 19.2001 0.800062 19.2001C0.447634 19.2001 0.13672 19.4308 0.0344712 19.768C-0.0677772 20.1053 0.0627288 20.4698 0.355827 20.6655C2.95439 22.4005 5.67783 22.4003 8.21095 22.4001L8.28847 22.4001C16.0655 22.4001 22.368 16.0862 22.368 8.30012V7.53485C22.9495 6.94385 23.4022 6.33886 23.6796 5.55674C23.9892 4.68403 24.0516 3.67209 23.9637 2.34721Z" fill="white"/>
</svg>
