<svg width="16" height="17" viewBox="0 0 16 17" fill="none" xmlns="http://www.w3.org/2000/svg">
<path d="M15.9758 1.60452C15.9616 1.39057 15.8207 1.20593 15.6181 1.1358C15.4155 1.06567 15.1906 1.1237 15.0472 1.2831C14.6785 1.69287 14.2126 1.97054 13.7397 2.09714C13.0821 1.48314 12.1984 1.10647 11.2273 1.10647C9.14326 1.10647 7.45518 2.79834 7.45518 4.88364V5.35276C4.26452 5.10619 2.55827 2.68243 2.09787 1.45279C2.02345 1.25403 1.83826 1.11831 1.62632 1.1072C1.41438 1.09609 1.21602 1.21169 1.12122 1.40158C0.00471268 3.63805 -0.167315 5.80721 0.644158 7.65432C1.35501 9.27238 2.78459 10.5613 4.81076 11.4152C3.88991 12.0678 2.34004 12.8398 0.533375 12.8398C0.298423 12.8398 0.0911464 12.9936 0.0229808 13.2184C-0.0451848 13.4432 0.0418192 13.6862 0.237218 13.8167C1.9696 14.9734 3.78522 14.9733 5.47396 14.9731L5.52565 14.9731C10.7103 14.9731 14.912 10.7638 14.912 5.57312V5.06295C15.2996 4.66895 15.6014 4.26562 15.7864 3.74421C15.9928 3.1624 16.0344 2.48778 15.9758 1.60452Z" fill="#303030"/>
</svg>
