<svg width="198" height="199" viewBox="0 0 198 199" fill="none" xmlns="http://www.w3.org/2000/svg">
<g clip-path="url(#clip0_244_1188)">
<path d="M97.8466 68.8112C100.029 66.2202 102.129 63.8036 104.15 61.2965C105.122 60.0899 105.833 60.154 106.809 61.3344C111.338 66.8065 115.911 72.2277 120.505 77.6231C121.446 78.7283 121.651 79.5494 120.592 80.7812C115.922 86.2139 111.301 91.7053 106.704 97.2246C105.804 98.3062 105.144 98.3808 104.222 97.2767C99.6189 91.7629 94.9851 86.2858 90.3378 80.8246C89.3728 79.6903 89.3326 78.7952 90.3586 77.6313C92.8611 74.7929 95.2791 71.8498 97.8466 68.8112Z" fill="#D4AF37"/>
<path d="M148.374 32.1533C148.377 37.995 148.5 43.5754 148.327 49.1427C148.239 51.9362 148.87 53.9808 150.64 55.8528C153.028 58.3775 152.936 58.5146 150.752 61.1221C147.659 64.8139 144.489 68.4185 141.49 72.2145C140.016 74.0793 139.074 74.2592 137.44 72.2907C126.967 59.6642 116.38 47.1711 105.826 34.6388C105.183 33.876 104.508 33.1528 103.416 31.9268C100.121 36.0204 96.9991 40.0386 93.7522 43.9089C76.2686 64.7497 58.7339 85.5294 41.285 106.411C39.6996 108.308 38.7814 108.325 37.2619 106.39C34.0103 102.25 30.5918 98.2914 27.1743 94.3412C26.0455 93.0364 25.9932 92.1682 27.1641 90.7816C52.1131 61.2367 77.0329 31.6566 101.918 2.03551C103.245 0.455774 104.053 0.337009 105.428 1.99077C114.507 12.9144 123.665 23.7451 132.811 34.5899C133.391 35.2783 133.843 36.1993 134.909 36.482C135.364 34.9819 135.186 33.4268 135.132 31.9357C135.061 29.964 135.628 29.1041 137.369 29.1686C140.289 29.2768 143.215 29.2757 146.135 29.1616C147.852 29.0945 148.561 29.8939 148.374 32.1533Z" fill="#D4AF37"/>
<path d="M2.29883 154.923V131.944H10.1414C14.0897 131.944 16.0639 133.996 16.0639 138.099C16.0639 142.566 13.364 145.292 7.96441 146.278L7.45058 143.771C11.4169 143.075 13.4001 141.227 13.4001 138.228C13.4001 135.678 12.2372 134.403 9.9115 134.403H4.80033V154.923H2.29883ZM24.9746 138.051C29.0131 138.051 31.0323 140.423 31.0323 145.169C31.0323 145.844 30.9917 146.567 30.9106 147.338H20.9452C20.9452 150.788 22.6399 152.512 26.0293 152.512C27.6429 152.512 29.0761 152.298 30.3292 151.87V154.28C29.0761 154.708 27.5527 154.923 25.7588 154.923C20.882 154.923 18.4436 152.047 18.4436 146.294C18.4436 140.798 20.6206 138.051 24.9746 138.051ZM20.9452 144.864H28.6255C28.5714 141.907 27.3544 140.429 24.9746 140.429C22.4506 140.429 21.1074 141.907 20.9452 144.864ZM33.7231 149.829C33.7231 146.369 35.6432 144.639 39.4833 144.639C40.7183 144.639 41.9533 144.746 43.1882 144.96V143.37C43.1882 141.43 41.9127 140.461 39.3616 140.461C37.9013 140.461 36.4049 140.729 34.8724 141.265V138.854C36.4049 138.319 37.9013 138.051 39.3616 138.051C43.5804 138.051 45.6897 139.797 45.6897 143.289V154.923H44.2835L43.4181 153.252C42.0029 154.366 40.4614 154.923 38.7937 154.923C35.4133 154.923 33.7231 153.225 33.7231 149.829ZM39.4833 147.049C37.3108 147.049 36.2246 147.96 36.2246 149.781C36.2246 151.602 37.081 152.512 38.7937 152.512C40.5245 152.512 41.9893 151.966 43.1882 150.873V147.37C41.9533 147.156 40.7183 147.049 39.4833 147.049ZM49.7595 154.923V138.051H51.4501L51.896 140.204C53.1403 138.769 54.6366 138.051 56.3854 138.051V140.525C54.6906 140.525 53.3161 141.238 52.2611 142.662V154.923H49.7595ZM61.5371 131.944V154.923H59.0355V131.944H61.5371Z" fill="white"/>
<path d="M73.375 154.923V131.944H81.2179C85.1659 131.944 87.1404 133.996 87.1404 138.099C87.1404 142.566 84.4404 145.292 79.0408 146.278L78.5272 143.771C82.4932 143.075 84.4764 141.227 84.4764 138.228C84.4764 135.678 83.3138 134.403 80.9881 134.403H75.8765V154.923H73.375ZM90.1962 154.923V138.051H91.8864L92.3327 140.204C93.5765 138.769 95.0729 138.051 96.8216 138.051V140.525C95.1269 140.525 93.7524 141.238 92.6978 142.662V154.923H90.1962ZM101.162 146.423C101.162 150.482 102.582 152.512 105.421 152.512C108.261 152.512 109.681 150.482 109.681 146.423C109.681 142.448 108.261 140.461 105.421 140.461C102.582 140.461 101.162 142.448 101.162 146.423ZM98.6609 146.487C98.6609 140.863 100.914 138.051 105.421 138.051C109.929 138.051 112.182 140.863 112.182 146.487C112.182 152.1 109.929 154.907 105.421 154.907C100.933 154.907 98.6789 152.1 98.6609 146.487ZM118.335 138.051V153.637C118.335 157.044 117.636 159.604 116.239 161.318L114.143 159.631C115.27 158.185 115.833 156.187 115.833 153.637V138.051H118.335ZM118.335 131.944V134.756H115.833V131.944H118.335ZM128.53 138.051C132.568 138.051 134.587 140.423 134.587 145.169C134.587 145.844 134.547 146.567 134.466 147.338H124.501C124.501 150.788 126.195 152.512 129.585 152.512C131.198 152.512 132.631 152.298 133.885 151.87V154.28C132.631 154.708 131.108 154.923 129.314 154.923C124.437 154.923 121.999 152.047 121.999 146.294C121.999 140.798 124.176 138.051 128.53 138.051ZM124.501 144.864H132.181C132.127 141.907 130.91 140.429 128.53 140.429C126.006 140.429 124.663 141.907 124.501 144.864ZM148.637 154.441C147.465 154.762 146.203 154.923 144.851 154.923C139.802 154.923 137.279 152.004 137.279 146.165C137.279 140.756 139.802 138.051 144.851 138.051C146.203 138.051 147.465 138.211 148.637 138.533V140.943C147.465 140.622 146.158 140.461 144.715 140.461C141.425 140.461 139.78 142.363 139.78 146.165C139.78 150.397 141.425 152.512 144.715 152.512C146.158 152.512 147.465 152.352 148.637 152.031V154.441ZM151.828 135.319H153.396L153.937 138.051H157.777V140.461H154.329V150.151C154.329 151.725 154.902 152.512 156.047 152.512H157.777V154.923H155.397C153.018 154.923 151.828 153.407 151.828 150.375V135.319ZM160.833 154.119V151.549C162.501 152.191 164.186 152.512 165.89 152.512C168.153 152.512 169.284 151.709 169.284 150.102C169.284 148.603 168.495 147.852 166.918 147.852H164.89C161.825 147.852 160.292 146.192 160.292 142.871C160.292 139.658 162.262 138.051 166.201 138.051C167.896 138.051 169.577 138.319 171.245 138.854V141.425C169.577 140.783 167.896 140.461 166.201 140.461C163.839 140.461 162.659 141.265 162.659 142.871C162.659 144.371 163.402 145.121 164.89 145.121H166.918C170.163 145.121 171.786 146.781 171.786 150.102C171.786 153.316 169.82 154.923 165.89 154.923C164.186 154.923 162.501 154.655 160.833 154.119Z" fill="white"/>
<path d="M24.0996 189.259C28.8322 189.259 31.1985 186.024 31.1985 179.554C31.1985 173.92 28.8322 171.102 24.0996 171.102H19.5699V189.259H24.0996ZM17.0684 191.67V168.691H24.0996C30.4998 168.691 33.6999 172.312 33.6999 179.554C33.6999 187.631 30.4998 191.67 24.0996 191.67H17.0684ZM42.9352 174.798C46.9735 174.798 48.9927 177.17 48.9927 181.916C48.9927 182.591 48.9521 183.314 48.8714 184.086H38.9058C38.9058 187.535 40.6005 189.259 43.9899 189.259C45.6035 189.259 47.0367 189.045 48.2898 188.617V191.027C47.0367 191.455 45.5133 191.67 43.7195 191.67C38.8427 191.67 36.4043 188.794 36.4043 183.041C36.4043 177.545 38.5813 174.798 42.9352 174.798ZM38.9058 181.611H46.5863C46.5318 178.655 45.315 177.176 42.9352 177.176C40.4112 177.176 39.0681 178.655 38.9058 181.611ZM50.3317 174.798H53.0358L57.1061 188.023L61.1487 174.798H63.8534L58.0795 191.67H55.7538L50.3317 174.798ZM71.7364 174.798C75.7749 174.798 77.7941 177.17 77.7941 181.916C77.7941 182.591 77.7535 183.314 77.6723 184.086H67.7067C67.7067 187.535 69.4015 189.259 72.791 189.259C74.4046 189.259 75.8377 189.045 77.0907 188.617V191.027C75.8377 191.455 74.3146 191.67 72.5206 191.67C67.644 191.67 65.2052 188.794 65.2052 183.041C65.2052 177.545 67.3823 174.798 71.7364 174.798ZM67.7067 181.611H75.3872C75.3332 178.655 74.1161 177.176 71.7364 177.176C69.2123 177.176 67.8692 178.655 67.7067 181.611ZM83.7978 168.691V191.67H81.2963V168.691H83.7978ZM89.8283 183.17C89.8283 187.229 91.248 189.259 94.0874 189.259C96.9272 189.259 98.3469 187.229 98.3469 183.17C98.3469 179.195 96.9272 177.208 94.0874 177.208C91.248 177.208 89.8283 179.195 89.8283 183.17ZM87.3267 183.234C87.3267 177.61 89.5804 174.798 94.0874 174.798C98.5947 174.798 100.848 177.61 100.848 183.234C100.848 188.847 98.5947 191.654 94.0874 191.654C89.5984 191.654 87.3447 188.847 87.3267 183.234ZM106.73 188.231C107.713 188.81 108.808 189.099 110.016 189.099C112.964 189.099 114.438 186.994 114.438 182.784C114.438 179.11 112.973 177.272 110.043 177.272C108.781 177.272 107.677 177.401 106.73 177.658V188.231ZM104.229 175.489C106.113 175.028 108.06 174.798 110.07 174.798C114.623 174.798 116.898 177.47 116.898 182.816C116.898 188.719 114.609 191.67 110.029 191.67C108.894 191.67 107.794 191.402 106.73 190.866V197.776H104.229V175.489ZM120.293 191.67V174.798H121.983L122.402 176.919C123.763 175.505 125.246 174.798 126.851 174.798C128.906 174.798 130.308 175.569 131.056 177.112C132.597 175.569 134.161 174.798 135.748 174.798C139.011 174.798 140.643 176.935 140.643 181.209V191.67H138.141V181.049C138.141 178.531 137.249 177.272 135.464 177.272C134.13 177.272 132.881 178.001 131.718 179.457V191.67H129.217V181.097C129.217 178.547 128.334 177.272 126.567 177.272C125.16 177.272 123.903 178.001 122.794 179.457V191.67H120.293ZM150.568 174.798C154.606 174.798 156.625 177.17 156.625 181.916C156.625 182.591 156.585 183.314 156.504 184.086H146.538C146.538 187.535 148.233 189.259 151.622 189.259C153.236 189.259 154.669 189.045 155.922 188.617V191.027C154.669 191.455 153.145 191.67 151.352 191.67C146.475 191.67 144.036 188.794 144.036 183.041C144.036 177.545 146.214 174.798 150.568 174.798ZM146.538 181.611H154.218C154.164 178.655 152.947 177.176 150.568 177.176C148.044 177.176 146.7 178.655 146.538 181.611ZM159.992 191.67V174.798H161.682L162.128 176.951C163.58 175.516 165.175 174.798 166.915 174.798C170.458 174.798 172.229 176.892 172.229 181.08V191.67H169.728V181.032C169.728 178.526 168.677 177.272 166.577 177.272C165.144 177.272 163.782 177.985 162.493 179.409V191.67H159.992ZM176.299 172.066H177.868L178.409 174.798H182.249V177.208H178.8V186.898C178.8 188.472 179.373 189.259 180.518 189.259H182.249V191.67H179.869C177.489 191.67 176.299 190.154 176.299 187.122V172.066Z" fill="white"/>
<path d="M181.812 138.131C181.812 134.007 184.111 131.944 188.708 131.944C190.376 131.944 191.999 132.213 193.576 132.748V135.158C191.999 134.623 190.435 134.355 188.884 134.355C185.837 134.355 184.314 135.587 184.314 138.051C184.314 140.729 185.463 142.068 187.762 142.068H193.008V139.786H193.86L195.239 142.068H197.701V144.478H195.51V147.049C195.51 152.33 193.175 154.971 188.506 154.971C184.044 154.971 181.812 152.845 181.812 148.592C181.812 145.946 182.682 144.162 184.422 143.241C182.682 142.33 181.812 140.627 181.812 138.131ZM187.789 144.478C185.472 144.478 184.314 145.823 184.314 148.512C184.314 151.179 185.671 152.512 188.384 152.512C191.467 152.512 193.008 150.681 193.008 147.017V144.478H187.789Z" fill="white"/>
</g>
<defs>
<clipPath id="clip0_244_1188">
<rect width="198" height="198.001" fill="white" transform="translate(0 0.799805)"/>
</clipPath>
</defs>
</svg>
