<svg width="23" height="25" viewBox="0 0 23 25" fill="none" xmlns="http://www.w3.org/2000/svg">
<path d="M2.96412 24.4192L21.439 14.0733C21.7104 13.9213 21.9364 13.6997 22.0937 13.4313C22.2511 13.1629 22.334 12.8574 22.334 12.5463C22.334 12.2352 22.2511 11.9298 22.0937 11.6614C21.9364 11.393 21.7104 11.1714 21.439 11.0194L2.96412 0.673361C2.65326 0.499256 2.29667 0.424184 1.942 0.45818C1.58733 0.492176 1.25149 0.63362 0.979361 0.863606C0.707235 1.09359 0.511793 1.40116 0.419157 1.7452C0.326521 2.08924 0.341106 2.45336 0.460964 2.78889L3.94565 12.5462L0.460963 22.3038C0.392369 22.4949 0.357182 22.6963 0.356946 22.8993C0.358682 23.204 0.439815 23.503 0.592343 23.7667C0.744874 24.0304 0.963527 24.2498 1.22673 24.4033C1.48994 24.5567 1.7886 24.6389 2.09326 24.6417C2.39791 24.6445 2.69804 24.5678 2.96401 24.4192L2.96412 24.4192ZM5.49156 13.4213L11.8749 13.4213C12.107 13.4213 12.3295 13.3292 12.4936 13.1651C12.6577 13.001 12.7499 12.7784 12.7499 12.5463C12.7499 12.3143 12.6577 12.0917 12.4936 11.9276C12.3295 11.7635 12.107 11.6713 11.8749 11.6713L5.49156 11.6713L2.1099 2.20078L20.5841 12.5463L2.10935 22.8915L5.49156 13.4213Z" fill="white"/>
</svg>
